<svg id="visual" viewBox="0 0 900 600" width="900" height="600" xmlns="http://www.w3.org/2000/svg" xmlns:xlink="http://www.w3.org/1999/xlink" version="1.1"><path d="M0 115L10 101C20 87 40 59 60 41C80 23 100 15 120 15C140 15 160 23 180 23C200 23 220 15 240 14C260 13 280 19 300 35C320 51 340 77 360 87C380 97 400 91 420 79C440 67 460 49 480 42C500 35 520 39 540 44C560 49 580 55 600 50C620 45 640 29 660 27C680 25 700 37 720 47C740 57 760 65 780 67C800 69 820 65 840 57C860 49 880 37 890 31L900 25L900 0L890 0C880 0 860 0 840 0C820 0 800 0 780 0C760 0 740 0 720 0C700 0 680 0 660 0C640 0 620 0 600 0C580 0 560 0 540 0C520 0 500 0 480 0C460 0 440 0 420 0C400 0 380 0 360 0C340 0 320 0 300 0C280 0 260 0 240 0C220 0 200 0 180 0C160 0 140 0 120 0C100 0 80 0 60 0C40 0 20 0 10 0L0 0Z" fill="#bdbfd8"></path><path d="M0 247L10 229C20 211 40 175 60 177C80 179 100 219 120 206C140 193 160 127 180 98C200 69 220 77 240 89C260 101 280 117 300 150C320 183 340 233 360 239C380 245 400 207 420 188C440 169 460 169 480 170C500 171 520 173 540 156C560 139 580 103 600 82C620 61 640 55 660 63C680 71 700 93 720 103C740 113 760 111 780 125C800 139 820 169 840 182C860 195 880 191 890 189L900 187L900 23L890 29C880 35 860 47 840 55C820 63 800 67 780 65C760 63 740 55 720 45C700 35 680 23 660 25C640 27 620 43 600 48C580 53 560 47 540 42C520 37 500 33 480 40C460 47 440 65 420 77C400 89 380 95 360 85C340 75 320 49 300 33C280 17 260 11 240 12C220 13 200 21 180 21C160 21 140 13 120 13C100 13 80 21 60 39C40 57 20 85 10 99L0 113Z" fill="#c1c4dc"></path><path d="M0 265L10 255C20 245 40 225 60 227C80 229 100 253 120 237C140 221 160 165 180 133C200 101 220 93 240 108C260 123 280 161 300 199C320 237 340 275 360 275C380 275 400 237 420 217C440 197 460 195 480 199C500 203 520 213 540 201C560 189 580 155 600 136C620 117 640 113 660 112C680 111 700 113 720 117C740 121 760 127 780 146C800 165 820 197 840 217C860 237 880 245 890 249L900 253L900 185L890 187C880 189 860 193 840 180C820 167 800 137 780 123C760 109 740 111 720 101C700 91 680 69 660 61C640 53 620 59 600 80C580 101 560 137 540 154C520 171 500 169 480 168C460 167 440 167 420 186C400 205 380 243 360 237C340 231 320 181 300 148C280 115 260 99 240 87C220 75 200 67 180 96C160 125 140 191 120 204C100 217 80 177 60 175C40 173 20 209 10 227L0 245Z" fill="#c5c9df"></path><path d="M0 283L10 275C20 267 40 251 60 254C80 257 100 279 120 258C140 237 160 173 180 141C200 109 220 109 240 134C260 159 280 209 300 244C320 279 340 299 360 294C380 289 400 259 420 247C440 235 460 241 480 242C500 243 520 239 540 220C560 201 580 167 600 156C620 145 640 157 660 155C680 153 700 137 720 135C740 133 760 145 780 174C800 203 820 249 840 271C860 293 880 291 890 290L900 289L900 251L890 247C880 243 860 235 840 215C820 195 800 163 780 144C760 125 740 119 720 115C700 111 680 109 660 110C640 111 620 115 600 134C580 153 560 187 540 199C520 211 500 201 480 197C460 193 440 195 420 215C400 235 380 273 360 273C340 273 320 235 300 197C280 159 260 121 240 106C220 91 200 99 180 131C160 163 140 219 120 235C100 251 80 227 60 225C40 223 20 243 10 253L0 263Z" fill="#cacee3"></path><path d="M0 295L10 290C20 285 40 275 60 278C80 281 100 297 120 275C140 253 160 193 180 160C200 127 220 121 240 147C260 173 280 231 300 274C320 317 340 345 360 343C380 341 400 309 420 297C440 285 460 293 480 288C500 283 520 265 540 245C560 225 580 203 600 196C620 189 640 197 660 194C680 191 700 177 720 177C740 177 760 191 780 216C800 241 820 277 840 294C860 311 880 309 890 308L900 307L900 287L890 288C880 289 860 291 840 269C820 247 800 201 780 172C760 143 740 131 720 133C700 135 680 151 660 153C640 155 620 143 600 154C580 165 560 199 540 218C520 237 500 241 480 240C460 239 440 233 420 245C400 257 380 287 360 292C340 297 320 277 300 242C280 207 260 157 240 132C220 107 200 107 180 139C160 171 140 235 120 256C100 277 80 255 60 252C40 249 20 265 10 273L0 281Z" fill="#ced3e7"></path><path d="M0 385L10 385C20 385 40 385 60 389C80 393 100 401 120 382C140 363 160 317 180 311C200 305 220 339 240 352C260 365 280 357 300 367C320 377 340 405 360 408C380 411 400 389 420 378C440 367 460 367 480 376C500 385 520 403 540 394C560 385 580 349 600 366C620 383 640 453 660 448C680 443 700 363 720 331C740 299 760 315 780 328C800 341 820 351 840 367C860 383 880 405 890 416L900 427L900 305L890 306C880 307 860 309 840 292C820 275 800 239 780 214C760 189 740 175 720 175C700 175 680 189 660 192C640 195 620 187 600 194C580 201 560 223 540 243C520 263 500 281 480 286C460 291 440 283 420 295C400 307 380 339 360 341C340 343 320 315 300 272C280 229 260 171 240 145C220 119 200 125 180 158C160 191 140 251 120 273C100 295 80 279 60 276C40 273 20 283 10 288L0 293Z" fill="#d3d8ea"></path><path d="M0 409L10 408C20 407 40 405 60 405C80 405 100 407 120 393C140 379 160 349 180 347C200 345 220 371 240 386C260 401 280 405 300 411C320 417 340 425 360 427C380 429 400 425 420 423C440 421 460 421 480 428C500 435 520 449 540 432C560 415 580 367 600 377C620 387 640 455 660 455C680 455 700 387 720 360C740 333 760 347 780 358C800 369 820 377 840 395C860 413 880 441 890 455L900 469L900 425L890 414C880 403 860 381 840 365C820 349 800 339 780 326C760 313 740 297 720 329C700 361 680 441 660 446C640 451 620 381 600 364C580 347 560 383 540 392C520 401 500 383 480 374C460 365 440 365 420 376C400 387 380 409 360 406C340 403 320 375 300 365C280 355 260 363 240 350C220 337 200 303 180 309C160 315 140 361 120 380C100 399 80 391 60 387C40 383 20 383 10 383L0 383Z" fill="#d7deee"></path><path d="M0 415L10 415C20 415 40 415 60 414C80 413 100 411 120 395C140 379 160 349 180 352C200 355 220 391 240 413C260 435 280 443 300 452C320 461 340 471 360 470C380 469 400 457 420 447C440 437 460 429 480 436C500 443 520 465 540 456C560 447 580 407 600 413C620 419 640 471 660 472C680 473 700 423 720 400C740 377 760 381 780 389C800 397 820 409 840 426C860 443 880 465 890 476L900 487L900 467L890 453C880 439 860 411 840 393C820 375 800 367 780 356C760 345 740 331 720 358C700 385 680 453 660 453C640 453 620 385 600 375C580 365 560 413 540 430C520 447 500 433 480 426C460 419 440 419 420 421C400 423 380 427 360 425C340 423 320 415 300 409C280 403 260 399 240 384C220 369 200 343 180 345C160 347 140 377 120 391C100 405 80 403 60 403C40 403 20 405 10 406L0 407Z" fill="#dce3f1"></path><path d="M0 553L10 544C20 535 40 517 60 517C80 517 100 535 120 528C140 521 160 489 180 475C200 461 220 465 240 478C260 491 280 513 300 526C320 539 340 543 360 537C380 531 400 515 420 502C440 489 460 479 480 486C500 493 520 517 540 517C560 517 580 493 600 492C620 491 640 513 660 523C680 533 700 531 720 525C740 519 760 509 780 499C800 489 820 479 840 481C860 483 880 497 890 504L900 511L900 485L890 474C880 463 860 441 840 424C820 407 800 395 780 387C760 379 740 375 720 398C700 421 680 471 660 470C640 469 620 417 600 411C580 405 560 445 540 454C520 463 500 441 480 434C460 427 440 435 420 445C400 455 380 467 360 468C340 469 320 459 300 450C280 441 260 433 240 411C220 389 200 353 180 350C160 347 140 377 120 393C100 409 80 411 60 412C40 413 20 413 10 413L0 413Z" fill="#e2e8f5"></path><path d="M0 571L10 563C20 555 40 539 60 537C80 535 100 547 120 541C140 535 160 511 180 499C200 487 220 487 240 495C260 503 280 519 300 533C320 547 340 559 360 560C380 561 400 551 420 540C440 529 460 517 480 523C500 529 520 553 540 553C560 553 580 529 600 523C620 517 640 529 660 533C680 537 700 533 720 531C740 529 760 529 780 523C800 517 820 505 840 508C860 511 880 529 890 538L900 547L900 509L890 502C880 495 860 481 840 479C820 477 800 487 780 497C760 507 740 517 720 523C700 529 680 531 660 521C640 511 620 489 600 490C580 491 560 515 540 515C520 515 500 491 480 484C460 477 440 487 420 500C400 513 380 529 360 535C340 541 320 537 300 524C280 511 260 489 240 476C220 463 200 459 180 473C160 487 140 519 120 526C100 533 80 515 60 515C40 515 20 533 10 542L0 551Z" fill="#e7edf8"></path><path d="M0 589L10 586C20 583 40 577 60 574C80 571 100 571 120 564C140 557 160 543 180 532C200 521 220 513 240 515C260 517 280 529 300 543C320 557 340 573 360 574C380 575 400 561 420 553C440 545 460 543 480 552C500 561 520 581 540 582C560 583 580 565 600 561C620 557 640 567 660 566C680 565 700 553 720 551C740 549 760 557 780 557C800 557 820 549 840 548C860 547 880 553 890 556L900 559L900 545L890 536C880 527 860 509 840 506C820 503 800 515 780 521C760 527 740 527 720 529C700 531 680 535 660 531C640 527 620 515 600 521C580 527 560 551 540 551C520 551 500 527 480 521C460 515 440 527 420 538C400 549 380 559 360 558C340 557 320 545 300 531C280 517 260 501 240 493C220 485 200 485 180 497C160 509 140 533 120 539C100 545 80 533 60 535C40 537 20 553 10 561L0 569Z" fill="#ecf2fc"></path><path d="M0 601L10 601C20 601 40 601 60 601C80 601 100 601 120 601C140 601 160 601 180 601C200 601 220 601 240 601C260 601 280 601 300 601C320 601 340 601 360 601C380 601 400 601 420 601C440 601 460 601 480 601C500 601 520 601 540 601C560 601 580 601 600 601C620 601 640 601 660 601C680 601 700 601 720 601C740 601 760 601 780 601C800 601 820 601 840 601C860 601 880 601 890 601L900 601L900 557L890 554C880 551 860 545 840 546C820 547 800 555 780 555C760 555 740 547 720 549C700 551 680 563 660 564C640 565 620 555 600 559C580 563 560 581 540 580C520 579 500 559 480 550C460 541 440 543 420 551C400 559 380 573 360 572C340 571 320 555 300 541C280 527 260 515 240 513C220 511 200 519 180 530C160 541 140 555 120 562C100 569 80 569 60 572C40 575 20 581 10 584L0 587Z" fill="#f2f7ff"></path></svg>